<svg width="27" height="27" viewBox="0 0 27 27" fill="none" xmlns="http://www.w3.org/2000/svg">
<path fill-rule="evenodd" clip-rule="evenodd" d="M19 4.11112H7.88887C6.9684 4.11112 6.22221 4.85731 6.22221 5.77778V21.3333C6.22221 22.2538 6.9684 23 7.88887 23H19C19.9205 23 20.6667 22.2538 20.6667 21.3333V5.77778C20.6667 4.85731 19.9205 4.11112 19 4.11112ZM7.88887 2.44445C6.04793 2.44445 4.55554 3.93683 4.55554 5.77778V21.3333C4.55554 23.1743 6.04793 24.6667 7.88887 24.6667H19C20.8409 24.6667 22.3333 23.1743 22.3333 21.3333V5.77778C22.3333 3.93684 20.8409 2.44445 19 2.44445H7.88887Z" fill="#838383"/>
<path fill-rule="evenodd" clip-rule="evenodd" d="M9.55552 7.44445V8.55556H17.3333V7.44445H9.55552ZM8.99997 5.77779C8.38632 5.77779 7.88885 6.27525 7.88885 6.8889V9.11112C7.88885 9.72477 8.38632 10.2222 8.99997 10.2222H17.8889C18.5025 10.2222 19 9.72477 19 9.11112V6.8889C19 6.27525 18.5025 5.77779 17.8889 5.77779H8.99997Z" fill="#838383"/>
<path fill-rule="evenodd" clip-rule="evenodd" d="M9.10098 19.1111C8.43154 19.1111 7.88885 19.6086 7.88885 20.2222C7.88885 20.8359 8.43154 21.3333 9.10098 21.3333H13.3434C14.0128 21.3333 14.5555 20.8359 14.5555 20.2222C14.5555 19.6086 14.0128 19.1111 13.3434 19.1111H9.10098Z" fill="#838383"/>
<path d="M9.11108 11.2222C9.11108 11.7745 8.66337 12.2222 8.11108 12.2222C7.5588 12.2222 7.11108 11.7745 7.11108 11.2222C7.11108 10.6699 7.5588 10.2222 8.11108 10.2222C8.66337 10.2222 9.11108 10.6699 9.11108 11.2222Z" fill="#838383"/>
<path d="M9.11108 14.7222C9.11108 15.2745 8.66337 15.7222 8.11108 15.7222C7.5588 15.7222 7.11108 15.2745 7.11108 14.7222C7.11108 14.1699 7.5588 13.7222 8.11108 13.7222C8.66337 13.7222 9.11108 14.1699 9.11108 14.7222Z" fill="#838383"/>
<path d="M13.1111 11.2222C13.1111 11.7745 12.6634 12.2222 12.1111 12.2222C11.5588 12.2222 11.1111 11.7745 11.1111 11.2222C11.1111 10.6699 11.5588 10.2222 12.1111 10.2222C12.6634 10.2222 13.1111 10.6699 13.1111 11.2222Z" fill="#838383"/>
<path d="M13.1111 14.7222C13.1111 15.2745 12.6634 15.7222 12.1111 15.7222C11.5588 15.7222 11.1111 15.2745 11.1111 14.7222C11.1111 14.1699 11.5588 13.7222 12.1111 13.7222C12.6634 13.7222 13.1111 14.1699 13.1111 14.7222Z" fill="#838383"/>
<path d="M17.1111 11.2222C17.1111 11.7745 16.6634 12.2222 16.1111 12.2222C15.5588 12.2222 15.1111 11.7745 15.1111 11.2222C15.1111 10.6699 15.5588 10.2222 16.1111 10.2222C16.6634 10.2222 17.1111 10.6699 17.1111 11.2222Z" fill="#838383"/>
<path d="M17.1111 14.7222C17.1111 15.2745 16.6634 15.7222 16.1111 15.7222C15.5588 15.7222 15.1111 15.2745 15.1111 14.7222C15.1111 14.1699 15.5588 13.7222 16.1111 13.7222C16.6634 13.7222 17.1111 14.1699 17.1111 14.7222Z" fill="#838383"/>
<path d="M17.1111 18.2222C17.1111 18.7745 16.6634 19.2222 16.1111 19.2222C15.5588 19.2222 15.1111 18.7745 15.1111 18.2222C15.1111 17.6699 15.5588 17.2222 16.1111 17.2222C16.6634 17.2222 17.1111 17.6699 17.1111 18.2222Z" fill="#838383"/>
</svg>
