<svg width="27" height="27" viewBox="0 0 27 27" fill="none" xmlns="http://www.w3.org/2000/svg">
<path fill-rule="evenodd" clip-rule="evenodd" d="M8 4.61113H6C5.17157 4.61113 4.5 5.2827 4.5 6.11113V8.11113C4.5 8.93956 5.17157 9.61113 6 9.61113H8C8.82843 9.61113 9.5 8.93956 9.5 8.11113V6.11113C9.5 5.2827 8.82843 4.61113 8 4.61113ZM6 3.11113C4.34315 3.11113 3 4.45428 3 6.11113V8.11113C3 9.76798 4.34315 11.1111 6 11.1111H8C9.65685 11.1111 11 9.76798 11 8.11113V6.11113C11 4.45428 9.65685 3.11113 8 3.11113H6Z" fill="#838383"/>
<path fill-rule="evenodd" clip-rule="evenodd" d="M8 14.6111H6C5.17157 14.6111 4.5 15.2827 4.5 16.1111V18.1111C4.5 18.9396 5.17157 19.6111 6 19.6111H8C8.82843 19.6111 9.5 18.9396 9.5 18.1111V16.1111C9.5 15.2827 8.82843 14.6111 8 14.6111ZM6 13.1111C4.34315 13.1111 3 14.4543 3 16.1111V18.1111C3 19.768 4.34315 21.1111 6 21.1111H8C9.65685 21.1111 11 19.768 11 18.1111V16.1111C11 14.4543 9.65685 13.1111 8 13.1111H6Z" fill="#838383"/>
<path fill-rule="evenodd" clip-rule="evenodd" d="M18 4.61113H16C15.1716 4.61113 14.5 5.2827 14.5 6.11113V8.11113C14.5 8.93956 15.1716 9.61113 16 9.61113H18C18.8284 9.61113 19.5 8.93956 19.5 8.11113V6.11113C19.5 5.2827 18.8284 4.61113 18 4.61113ZM16 3.11113C14.3431 3.11113 13 4.45428 13 6.11113V8.11113C13 9.76798 14.3431 11.1111 16 11.1111H18C19.6569 11.1111 21 9.76798 21 8.11113V6.11113C21 4.45428 19.6569 3.11113 18 3.11113H16Z" fill="#838383"/>
<path fill-rule="evenodd" clip-rule="evenodd" d="M18 14.6111H16C15.1716 14.6111 14.5 15.2827 14.5 16.1111V18.1111C14.5 18.9396 15.1716 19.6111 16 19.6111H18C18.8284 19.6111 19.5 18.9396 19.5 18.1111V16.1111C19.5 15.2827 18.8284 14.6111 18 14.6111ZM16 13.1111C14.3431 13.1111 13 14.4543 13 16.1111V18.1111C13 19.768 14.3431 21.1111 16 21.1111H18C19.6569 21.1111 21 19.768 21 18.1111V16.1111C21 14.4543 19.6569 13.1111 18 13.1111H16Z" fill="#838383"/>
</svg>
