<svg width="27" height="27" viewBox="0 0 27 28" fill="none" xmlns="http://www.w3.org/2000/svg">
<path d="M18.1636 15.6514C18.2492 15.7847 18.373 15.8888 18.5159 15.9573C19.6074 16.4814 20.3611 17.5971 20.3611 18.8889V20.8889C20.3611 21.3031 20.6969 21.6389 21.1111 21.6389C21.5253 21.6389 21.8611 21.3031 21.8611 20.8889V18.8889C21.8611 16.2655 19.7344 14.1389 17.1111 14.1389C17.0024 14.1389 16.9534 14.2791 17.0356 14.3503C17.4708 14.7269 17.8514 15.1652 18.1636 15.6514Z" fill="#838383"/>
<path fill-rule="evenodd" clip-rule="evenodd" d="M7.11108 15.6389C5.31616 15.6389 3.86108 17.094 3.86108 18.8889V20.8889C3.86108 21.3031 3.5253 21.6389 3.11108 21.6389C2.69687 21.6389 2.36108 21.3031 2.36108 20.8889V18.8889C2.36108 16.2655 4.48773 14.1389 7.11108 14.1389H13.1111C15.7344 14.1389 17.8611 16.2655 17.8611 18.8889V20.8889C17.8611 21.3031 17.5253 21.6389 17.1111 21.6389C16.6969 21.6389 16.3611 21.3031 16.3611 20.8889V18.8889C16.3611 17.094 14.906 15.6389 13.1111 15.6389H7.11108Z" fill="#838383"/>
<path d="M14.9815 10.4464C15.0705 10.2773 15.2119 10.1423 15.3765 10.0454C16.1152 9.61098 16.611 8.80784 16.611 7.8889C16.611 6.96996 16.1152 6.16682 15.3765 5.7324C15.2119 5.63554 15.0705 5.50051 14.9815 5.33143C14.733 4.85901 14.4177 4.42717 14.0482 4.04844C13.9904 3.98928 14.0284 3.8889 14.111 3.8889C16.3202 3.8889 18.111 5.67976 18.111 7.8889C18.111 10.098 16.3202 11.8889 14.111 11.8889C14.0284 11.8889 13.9904 11.7885 14.0482 11.7294C14.4177 11.3506 14.733 10.9188 14.9815 10.4464Z" fill="#838383"/>
<path fill-rule="evenodd" clip-rule="evenodd" d="M10.1111 10.3889C11.4918 10.3889 12.6111 9.26961 12.6111 7.8889C12.6111 6.50819 11.4918 5.3889 10.1111 5.3889C8.73037 5.3889 7.61108 6.50819 7.61108 7.8889C7.61108 9.26961 8.73037 10.3889 10.1111 10.3889ZM10.1111 11.8889C12.3202 11.8889 14.1111 10.098 14.1111 7.8889C14.1111 5.67976 12.3202 3.8889 10.1111 3.8889C7.90195 3.8889 6.11108 5.67976 6.11108 7.8889C6.11108 10.098 7.90195 11.8889 10.1111 11.8889Z" fill="#838383"/>
</svg>
