<svg width="20" height="20" viewBox="0 0 20 21" fill="none" xmlns="http://www.w3.org/2000/svg">
<path fill-rule="evenodd" clip-rule="evenodd" d="M3 20.7778C1.34315 20.7778 0 19.4346 0 17.7778V10.1138C0 9.26338 0.360964 8.45289 0.993106 7.88396L7.9931 1.58396C9.13402 0.557138 10.866 0.557136 12.0069 1.58396L19.0069 7.88396C19.639 8.45289 20 9.26338 20 10.1138V17.7778C20 19.4346 18.6569 20.7778 17 20.7778H3ZM18.5 10.1138V17.7778C18.5 18.6062 17.8284 19.2778 17 19.2778H14V13.7778C14 12.1209 12.6569 10.7778 11 10.7778H9C7.34315 10.7778 6 12.1209 6 13.7778V19.2778H3C2.17157 19.2778 1.5 18.6062 1.5 17.7778V10.1138C1.5 9.68861 1.68048 9.28336 1.99655 8.9989L8.99655 2.6989C9.56701 2.18549 10.433 2.18549 11.0034 2.6989L18.0034 8.9989C18.3195 9.28336 18.5 9.68861 18.5 10.1138ZM7.5 19.2778V13.7778C7.5 12.9493 8.17157 12.2778 9 12.2778H11C11.8284 12.2778 12.5 12.9493 12.5 13.7778V19.2778H7.5Z" fill="#838383"/>
</svg>
