<svg width="27" height="27" viewBox="0 0 27 28" fill="none" xmlns="http://www.w3.org/2000/svg">
<path d="M6 14.6945C5.58579 14.6945 5.25 15.0302 5.25 15.4445C5.25 15.8587 5.58579 16.1945 6 16.1945H12C12.4142 16.1945 12.75 15.8587 12.75 15.4445C12.75 15.0302 12.4142 14.6945 12 14.6945H6Z" fill="#838383"/>
<path fill-rule="evenodd" clip-rule="evenodd" d="M5 4.44446C3.34315 4.44446 2 5.7876 2 7.44446V17.4445C2 19.1013 3.34315 20.4445 5 20.4445H19C20.6569 20.4445 22 19.1013 22 17.4445V7.44446C22 5.7876 20.6569 4.44446 19 4.44446H5ZM19 5.94446H5C4.17157 5.94446 3.5 6.61603 3.5 7.44446V8.69446H20.5V7.44446C20.5 6.61603 19.8284 5.94446 19 5.94446ZM3.5 17.4445V10.1945H20.5V17.4445C20.5 18.2729 19.8284 18.9445 19 18.9445H5C4.17157 18.9445 3.5 18.2729 3.5 17.4445Z" fill="#838383"/>
</svg>
