<svg width="27" height="28" viewBox="0 0 27 28" fill="none" xmlns="http://www.w3.org/2000/svg">
<path fill-rule="evenodd" clip-rule="evenodd" d="M12.1111 15.2778C13.4918 15.2778 14.6111 14.1585 14.6111 12.7778C14.6111 11.3971 13.4918 10.2778 12.1111 10.2778C10.7304 10.2778 9.61108 11.3971 9.61108 12.7778C9.61108 14.1585 10.7304 15.2778 12.1111 15.2778ZM16.1111 12.7778C16.1111 14.9869 14.3202 16.7778 12.1111 16.7778C9.90194 16.7778 8.11108 14.9869 8.11108 12.7778C8.11108 10.5687 9.90194 8.7778 12.1111 8.7778C14.3202 8.7778 16.1111 10.5687 16.1111 12.7778Z" fill="#838383"/>
<path fill-rule="evenodd" clip-rule="evenodd" d="M11.0158 3.61969L10.6282 4.78235C10.3015 5.7627 9.58437 6.45717 8.8332 6.87543C8.76915 6.91109 8.70573 6.94777 8.64297 6.98545C7.90431 7.42889 6.94299 7.70348 5.92937 7.49606L4.72759 7.25013C4.51675 7.20699 4.30195 7.3036 4.19434 7.48998L3.57336 8.56555C3.46575 8.75194 3.48948 8.98626 3.63227 9.14729L4.4473 10.0664C5.13135 10.8378 5.3763 11.8046 5.36265 12.666C5.36147 12.7405 5.36147 12.8151 5.36265 12.8896C5.3763 13.751 5.13134 14.7177 4.4473 15.4891L3.63227 16.4082C3.48948 16.5693 3.46575 16.8036 3.57336 16.99L4.19434 18.0656C4.30195 18.2519 4.51675 18.3485 4.72759 18.3054L5.92929 18.0595C6.94292 17.8521 7.90425 18.1267 8.64291 18.5701C8.7057 18.6078 8.76914 18.6445 8.8332 18.6802C9.58437 19.0984 10.3015 19.7929 10.6282 20.7733L11.0158 21.9359C11.0839 22.1401 11.2749 22.2778 11.4901 22.2778H12.7321C12.9473 22.2778 13.1384 22.1401 13.2064 21.9359L13.594 20.7733C13.9208 19.7929 14.6379 19.0984 15.389 18.6802C15.4531 18.6445 15.5165 18.6078 15.5793 18.5701C16.318 18.1267 17.2793 17.8521 18.2929 18.0595L19.4946 18.3054C19.7054 18.3485 19.9202 18.2519 20.0278 18.0656L20.6488 16.99C20.7564 16.8036 20.7327 16.5693 20.5899 16.4082L19.7749 15.4892C19.0909 14.7178 18.8459 13.751 18.8596 12.8896C18.8608 12.8151 18.8608 12.7405 18.8596 12.666C18.8459 11.8045 19.0909 10.8378 19.7749 10.0663L20.5899 9.14729C20.7327 8.98627 20.7564 8.75194 20.6488 8.56556L20.0278 7.48998C19.9202 7.3036 19.7054 7.20699 19.4946 7.25013L18.2929 7.49605C17.2792 7.70347 16.3179 7.42888 15.5793 6.98545C15.5165 6.94777 15.4531 6.91109 15.389 6.87543C14.6379 6.45717 13.9208 5.7627 13.594 4.78235L13.2064 3.61969C13.1384 3.41552 12.9473 3.2778 12.7321 3.2778H11.4901C11.2749 3.2778 11.0839 3.41552 11.0158 3.61969ZM9.20522 4.30801C9.02297 4.85474 8.607 5.28453 8.10348 5.56489C8.02517 5.60849 7.94764 5.65334 7.87092 5.6994C7.37622 5.99637 6.79537 6.14219 6.23009 6.02651L5.02831 5.78059C4.18493 5.608 3.32573 5.99445 2.8953 6.73998L2.27432 7.81555C1.84389 8.56108 1.93881 9.49839 2.50997 10.1425L3.32499 11.0616C3.70691 11.4923 3.87196 12.0667 3.86284 12.6422C3.86141 12.7326 3.86141 12.823 3.86284 12.9133C3.87196 13.4889 3.7069 14.0632 3.32499 14.4939L2.50997 15.413C1.93881 16.0571 1.84389 16.9945 2.27432 17.74L2.8953 18.8156C3.32573 19.5611 4.18493 19.9475 5.02831 19.775L6.23001 19.529C6.79529 19.4134 7.37615 19.5592 7.87085 19.8562C7.94759 19.9022 8.02515 19.9471 8.10348 19.9907C8.607 20.2711 9.02297 20.7009 9.20522 21.2476L9.59277 22.4103C9.865 23.2269 10.6293 23.7778 11.4901 23.7778H12.7321C13.593 23.7778 14.3572 23.2269 14.6295 22.4103L15.017 21.2476C15.1993 20.7009 15.6152 20.2711 16.1187 19.9907C16.1971 19.9471 16.2746 19.9022 16.3514 19.8562C16.8461 19.5592 17.4269 19.4134 17.9922 19.529L19.1939 19.7749C20.0373 19.9475 20.8965 19.5611 21.3269 18.8156L21.9479 17.74C22.3783 16.9945 22.2834 16.0571 21.7122 15.413L20.8972 14.494C20.5153 14.0633 20.3503 13.4889 20.3594 12.9134C20.3608 12.823 20.3608 12.7326 20.3594 12.6422C20.3503 12.0666 20.5153 11.4922 20.8972 11.0616L21.7122 10.1425C22.2834 9.4984 22.3783 8.56108 21.9479 7.81556L21.3269 6.73998C20.8965 5.99446 20.0373 5.608 19.1939 5.78059L17.9921 6.0265C17.4269 6.14218 16.846 5.99637 16.3513 5.69939C16.2746 5.65334 16.1971 5.60849 16.1188 5.56489C15.6152 5.28453 15.1993 4.85474 15.017 4.30801L14.6295 3.14534C14.3572 2.32866 13.593 1.7778 12.7321 1.7778H11.4901C10.6293 1.7778 9.865 2.32866 9.59277 3.14535L9.20522 4.30801Z" fill="#838383"/>
</svg>
